<svg width="19" height="16" viewBox="0 0 19 16" fill="none" xmlns="http://www.w3.org/2000/svg">
<path fill-rule="evenodd" clip-rule="evenodd" d="M2.25 1.75H13.25C13.3826 1.75 13.5098 1.80268 13.6036 1.89645C13.6973 1.99021 13.75 2.11739 13.75 2.25V10.25C13.75 10.3826 13.6973 10.5098 13.6036 10.6036C13.5098 10.6973 13.3826 10.75 13.25 10.75H2.25C2.11739 10.75 1.99021 10.6973 1.89645 10.6036C1.80268 10.5098 1.75 10.3826 1.75 10.25V2.25C1.75 2.11739 1.80268 1.99021 1.89645 1.89645C1.99021 1.80268 2.11739 1.75 2.25 1.75ZM0.25 2.25C0.25 1.71957 0.460714 1.21086 0.835786 0.835786C1.21086 0.460714 1.71957 0.25 2.25 0.25H13.25C13.7804 0.25 14.2891 0.460714 14.6642 0.835786C15.0393 1.21086 15.25 1.71957 15.25 2.25V10.25C15.25 10.7804 15.0393 11.2891 14.6642 11.6642C14.2891 12.0393 13.7804 12.25 13.25 12.25H2.25C1.71957 12.25 1.21086 12.0393 0.835786 11.6642C0.460714 11.2891 0.25 10.7804 0.25 10.25V2.25ZM17.25 5.25V13C17.25 13.69 16.69 14.25 16 14.25H3.25V15.75H16C16.7293 15.75 17.4288 15.4603 17.9445 14.9445C18.4603 14.4288 18.75 13.7293 18.75 13V5.25H17.25Z" fill="#6E6E6E" stroke="#6E6E6E" stroke-width="0.5"/>
</svg>
