<svg width="91" height="95" viewBox="0 0 91 95" fill="none" xmlns="http://www.w3.org/2000/svg">
<g filter="url(#filter0_d_1_10066)">
<path d="M47.1228 -1.88496e-06C35.6859 -1.38504e-06 24.7175 4.54328 16.6304 12.6304C8.54328 20.7175 4 31.6859 4 43.1228C4 54.5597 8.54328 65.5281 16.6304 73.6152C24.7175 81.7023 35.6859 86.2456 47.1228 86.2456L47.1228 63.773C41.646 63.773 36.3936 61.5974 32.5209 57.7247C28.6482 53.852 26.4726 48.5996 26.4726 43.1228C26.4726 37.646 28.6482 32.3936 32.5209 28.5209C36.3936 24.6482 41.646 22.4726 47.1228 22.4726L47.1228 -1.88496e-06Z" fill="white"/>
</g>
<defs>
<filter id="filter0_d_1_10066" x="0" y="0" width="51.1228" height="94.2456" filterUnits="userSpaceOnUse" color-interpolation-filters="sRGB">
<feFlood flood-opacity="0" result="BackgroundImageFix"/>
<feColorMatrix in="SourceAlpha" type="matrix" values="0 0 0 0 0 0 0 0 0 0 0 0 0 0 0 0 0 0 127 0" result="hardAlpha"/>
<feOffset dy="4"/>
<feGaussianBlur stdDeviation="2"/>
<feComposite in2="hardAlpha" operator="out"/>
<feColorMatrix type="matrix" values="0 0 0 0 0 0 0 0 0 0 0 0 0 0 0 0 0 0 0.25 0"/>
<feBlend mode="normal" in2="BackgroundImageFix" result="effect1_dropShadow_1_10066"/>
<feBlend mode="normal" in="SourceGraphic" in2="effect1_dropShadow_1_10066" result="shape"/>
</filter>
</defs>
</svg>
