<svg width="44" height="44" viewBox="0 0 44 44" fill="none" xmlns="http://www.w3.org/2000/svg">
<rect width="44" height="44" rx="2" fill="#00C29B"/>
<path d="M10.1578 21.6515C9.76891 21.2631 9.20301 21.1186 8.39584 21.5846C5.38189 23.3246 8.26702 26.9353 10.0697 28.4948H10.2813L10.307 29.9181C10.3297 31.1763 10.697 32.4067 11.4437 33.4197C12.4751 34.8189 14.0835 36.8102 15.6212 37.9312C17.931 39.615 19.5856 40.2081 22.2525 40.9187C22.5014 40.985 22.7649 40.985 23.0138 40.9187C25.6807 40.2081 27.3353 39.6155 29.6451 37.9316C31.1828 36.8107 32.7912 34.8194 33.8226 33.4202C34.5693 32.4072 34.9366 31.1768 34.9593 29.9186L34.9849 28.4948H35.1966C36.9993 26.9353 39.8844 23.3246 36.8704 21.5846C36.0632 21.1186 35.4974 21.2632 35.1085 21.6516L35.1699 18.2469H10.0963L10.1578 21.6515Z" fill="#CE9175"/>
<path d="M36.2672 18.2704H32.3109L32.3953 18.6244C33.6871 18.8231 33.6362 21.8438 33.434 23.4903C33.4201 23.6031 33.4579 23.7158 33.5383 23.7961C33.6582 23.9161 33.8452 23.9369 33.9886 23.8464L34.0181 23.8278C34.1362 23.7533 34.2063 23.6227 34.2134 23.4833C34.3091 21.5998 35.6091 21.2548 36.2121 21.3186L36.2672 18.2704Z" fill="#3A2A1F"/>
<path d="M8.99891 18.2704H12.9553L12.8708 18.6244C11.5791 18.8231 11.6299 21.8438 11.8322 23.4903C11.846 23.6031 11.8082 23.7158 11.7279 23.7961C11.6079 23.9161 11.421 23.9369 11.2775 23.8464L11.248 23.8278C11.13 23.7533 11.0599 23.6227 11.0528 23.4833C10.9571 21.5998 9.65705 21.2548 9.05403 21.3186L8.99891 18.2704Z" fill="#3A2A1F"/>
<path d="M13.0974 16.6098H36.2703V18.2778H13.0974V16.6098Z" fill="#101A12"/>
<path d="M36.2902 16.7815H14.098C14.098 18.162 13.0666 20.9231 8.94067 20.9231C4.81478 20.9231 5.5037 15.5369 6.90899 13.1089C9.82218 8.07554 19.2554 -0.20647 29.5701 4.357C39.8848 8.92047 38.348 14.5414 36.2902 16.7815Z" fill="#194831"/>
<path d="M23.8664 11.2611C23.8664 12.9468 22.943 14.3133 21.8039 14.3133C20.6648 14.3133 19.7414 12.9468 19.7414 11.2611C19.7414 9.57543 20.6648 8.20892 21.8039 8.20892C22.943 8.20892 23.8664 9.57543 23.8664 11.2611Z" fill="#A87E31"/>
</svg>
